<svg xmlns="http://www.w3.org/2000/svg" viewBox="0 0 1440 320"><path fill="#0099ff" fill-opacity="1" d="M0,224L24,192C48,160,96,96,144,101.3C192,107,240,181,288,224C336,267,384,277,432,261.3C480,245,528,203,576,165.3C624,128,672,96,720,90.7C768,85,816,107,864,138.7C912,171,960,213,1008,213.3C1056,213,1104,171,1152,176C1200,181,1248,235,1296,250.7C1344,267,1392,245,1416,234.7L1440,224L1440,0L1416,0C1392,0,1344,0,1296,0C1248,0,1200,0,1152,0C1104,0,1056,0,1008,0C960,0,912,0,864,0C816,0,768,0,720,0C672,0,624,0,576,0C528,0,480,0,432,0C384,0,336,0,288,0C240,0,192,0,144,0C96,0,48,0,24,0L0,0Z"></path></svg>